<svg xmlns="http://www.w3.org/2000/svg" fill="none" viewBox="0 0 24 24">
  <path  d="M12 19a1 1 0 1 0 0-2 1 1 0 0 0 0 2Zm5 0a1 1 0 1 0 0-2 1 1 0 0 0 0 2Zm0-4a1 1 0 1 0 0-2 1 1 0 0 0 0 2Zm-5 0a1 1 0 1 0 0-2 1 1 0 0 0 0 2Zm7-12h-1V2a1 1 0 0 0-2 0v1H8V2a1 1 0 0 0-2 0v1H5a3 3 0 0 0-3 3v14a3 3 0 0 0 3 3h14a3 3 0 0 0 3-3V6a3 3 0 0 0-3-3Zm1 17a1 1 0 0 1-1 1H5a1 1 0 0 1-1-1v-9h16v9Zm0-11H4V6a1 1 0 0 1 1-1h1v1a1 1 0 0 0 2 0V5h8v1a1 1 0 0 0 2 0V5h1a1 1 0 0 1 1 1v3ZM7 15a1 1 0 1 0 0-2 1 1 0 0 0 0 2Zm0 4a1 1 0 1 0 0-2 1 1 0 0 0 0 2Z"/>
</svg>
