<svg xmlns="http://www.w3.org/2000/svg" fill="none" viewBox="0 0 16 16">
  <path d="m8.073 10.26-2.586 2.587a1.68 1.68 0 0 1-2.334 0 1.647 1.647 0 0 1 0-2.334L5.74 7.927a.67.67 0 1 0-.947-.947L2.207 9.573a2.987 2.987 0 0 0 4.22 4.22l2.593-2.586a.67.67 0 0 0-.947-.947Zm5.72-8.053a2.993 2.993 0 0 0-4.22 0L6.98 4.793a.67.67 0 0 0 .947.947l2.586-2.587a1.68 1.68 0 0 1 2.334 0 1.647 1.647 0 0 1 0 2.334L10.26 8.073a.667.667 0 0 0 .217 1.093.667.667 0 0 0 .73-.146l2.586-2.593a2.993 2.993 0 0 0 0-4.22Zm-7.906 7.906a.668.668 0 0 0 .729.144.668.668 0 0 0 .217-.144l3.28-3.28a.67.67 0 0 0-.946-.946l-3.28 3.28a.667.667 0 0 0 0 .946Z"/>
</svg>
