<svg xmlns="http://www.w3.org/2000/svg" fill="none" viewBox="0 0 24 24">
    <path d="m12.11 15.39-3.88 3.88a2.52 2.52 0 0 1-3.5 0 2.47 2.47 0 0 1 0-3.5l3.88-3.88a1.004 1.004 0 0 0-1.42-1.42l-3.88 3.89a4.48 4.48 0 0 0 6.33 6.33l3.89-3.88a1.005 1.005 0 0 0-1.42-1.42Zm8.58-12.08a4.49 4.49 0 0 0-6.33 0l-3.89 3.88a1.004 1.004 0 0 0 1.42 1.42l3.88-3.88a2.52 2.52 0 0 1 3.5 0 2.471 2.471 0 0 1 0 3.5l-3.88 3.88a1 1 0 0 0 0 1.42 1.001 1.001 0 0 0 1.42 0l3.88-3.89a4.49 4.49 0 0 0 0-6.33ZM8.83 15.17a.998.998 0 0 0 .71.29 1 1 0 0 0 .71-.29l4.92-4.92a1.004 1.004 0 0 0-1.42-1.42l-4.92 4.92a.999.999 0 0 0 0 1.42Z" />
</svg>
