<svg fill="none" viewBox="0 0 48 48" xmlns="http://www.w3.org/2000/svg">
    <path d="m0 24c0-13.2548 10.7452-24 24-24s24 10.7452 24 24-10.7452 24-24 24-24-10.7452-24-24z" fill="#1769ff" />
    <path clip-rule="evenodd" d="m23.6704 20.0449c0-.9251-.2423-1.718-.7255-2.3818-.8053-1.081-2.1704-1.6349-4.1001-1.6631h-7.6448v15.6065h7.1285c.8038 0 1.5474-.0683 2.2352-.2094.6879-.1425 1.2824-.4024 1.7867-.784.4485-.3326.8218-.7425 1.1198-1.228.4711-.7336.706-1.5637.706-2.4888 0-.8969-.2063-1.6601-.6157-2.2867-.4139-.6282-1.022-1.087-1.8288-1.378.5314-.2673.9333-.5643 1.2072-.888.4892-.5791.7315-1.3468.7315-2.2987zm10.6672-1.375h-6.7793v-1.9423h6.7793zm-5.9891 6.0243c.1114-.7514.3838-1.3468.8158-1.7864.432-.4395 1.0431-.6593 1.8258-.6593.7225 0 1.3261.2064 1.8167.6207.4847.4173.7587 1.0231.8143 1.825zm5.3916-4.3939c.8173.3594 1.4901.9296 2.0199 1.7077.4832.686.7932 1.4819.9347 2.3862.0828.5287.1159 1.2949.1024 2.2913h-8.5239c.0512 1.1567.4546 1.969 1.2253 2.4338.4666.2895 1.028.435 1.6873.435.6939 0 1.2613-.1767 1.6963-.5286.2393-.1915.4501-.4559.6307-.7944h3.1232c-.0828.683-.4621 1.3795-1.1334 2.0863-1.0476 1.1211-2.5151 1.6824-4.4011 1.6824-1.5579 0-2.9321-.4722-4.1197-1.4196-1.1936-.9459-1.7866-2.4872-1.7866-4.6196 0-2.0002.5373-3.5341 1.6105-4.6017 1.0762-1.0647 2.4685-1.6008 4.1829-1.6008 1.019 0 1.9356.1812 2.7515.542zm-19.3867 8.5977v-4.1622h3.8954c.6773.0059 1.2056.095 1.5819.2643.6728.3044 1.007.8612 1.007 1.675 0 .9592-.3462 1.6067-1.0401 1.9482-.3808.1826-.9167.2747-1.603.2747zm0-10.188v3.4435h3.8472c.6849 0 1.2433-.1292 1.6738-.3876.4274-.2583.6427-.7157.6427-1.3691 0-.7291-.283-1.2087-.849-1.4433-.4906-.1619-1.1138-.2435-1.8709-.2435z" fill="#fff" fill-rule="evenodd" />
</svg>
