<svg viewBox="0 0 48 48" fill="none" xmlns="http://www.w3.org/2000/svg">
    <circle cx="24" cy="24" r="24" fill="#5865F2" />
    <path fill-rule="evenodd" clip-rule="evenodd" d="M35.107 14.0937C33.0356 13.1156 30.8208 12.4048 28.5052 12C28.2208 12.5189 27.8886 13.2168 27.6595 13.772C25.198 13.3984 22.7591 13.3984 20.3429 13.772C20.1139 13.2168 19.7741 12.5189 19.4871 12C17.1691 12.4048 14.9517 13.1182 12.8803 14.0989C8.70219 20.4709 7.56959 26.6845 8.13589 32.81C10.907 34.8985 13.5925 36.1672 16.2328 36.9974C16.8847 36.092 17.466 35.1294 17.9669 34.115C17.013 33.7492 16.0994 33.2978 15.2361 32.7737C15.4651 32.6024 15.6891 32.4234 15.9056 32.2392C21.1709 34.7247 26.8919 34.7247 32.0943 32.2392C32.3133 32.4234 32.5373 32.6024 32.7638 32.7737C31.898 33.3003 30.9818 33.7518 30.0279 34.1176C30.5288 35.1294 31.1077 36.0946 31.7621 37C34.4048 36.1698 37.0929 34.9011 39.864 32.81C40.5285 25.709 38.7289 19.5524 35.107 14.0937ZM18.6842 29.0429C17.1036 29.0429 15.8074 27.5537 15.8074 25.7402C15.8074 23.9266 17.0759 22.4349 18.6842 22.4349C20.2926 22.4349 21.5887 23.924 21.5611 25.7402C21.5636 27.5537 20.2926 29.0429 18.6842 29.0429ZM26.4388 25.7402C26.4388 27.5537 27.7351 29.0429 29.3157 29.0429C30.9239 29.0429 32.1925 27.5537 32.1925 25.7402C32.2202 23.924 30.9239 22.4349 29.3157 22.4349C27.7073 22.4349 26.4388 23.9266 26.4388 25.7402Z" fill="white" />
</svg>
