<svg viewBox="0 0 48 48" fill="none" xmlns="http://www.w3.org/2000/svg">
    <circle cx="24" cy="24" r="24" fill="#EA4C89" />
    <path fill-rule="evenodd" clip-rule="evenodd" d="M24 8C15.167 8 8 15.167 8 24C8 32.833 15.167 40 24 40C32.8156 40 40 32.833 40 24C40 15.167 32.8156 8 24 8ZM34.5683 15.3753C36.4772 17.7006 37.6226 20.6681 37.6573 23.8785C37.2061 23.7917 32.6941 22.872 28.1475 23.4447C28.0434 23.2191 27.9566 22.9761 27.8525 22.7332C27.5748 22.0738 27.2625 21.397 26.9501 20.7549C31.9827 18.7072 34.2733 15.7571 34.5683 15.3753ZM24 10.3601C27.4707 10.3601 30.6464 11.6616 33.0586 13.7961C32.8156 14.1432 30.7505 16.9024 25.8916 18.7245C23.6529 14.6117 21.1714 11.2451 20.7896 10.7245C21.8134 10.4816 22.8894 10.3601 24 10.3601ZM18.1866 11.6443C18.551 12.1301 20.9805 15.5141 23.2538 19.5401C16.8677 21.2408 11.2278 21.2061 10.6204 21.2061C11.5054 16.9718 14.3688 13.449 18.1866 11.6443ZM10.3254 24.0173C10.3254 23.8785 10.3254 23.7397 10.3254 23.6009C10.9154 23.6182 17.5445 23.705 24.3644 21.6573C24.7636 22.4208 25.128 23.2017 25.475 23.9827C25.3015 24.0347 25.1106 24.0868 24.9371 24.1388C17.8916 26.4122 14.1432 32.6247 13.8308 33.1453C11.6616 30.7332 10.3254 27.5228 10.3254 24.0173ZM24 37.6746C20.8417 37.6746 17.9262 36.5987 15.6182 34.7939C15.8612 34.2907 18.6378 28.9458 26.3427 26.256C26.3774 26.2386 26.3948 26.2386 26.4295 26.2212C28.3557 31.2017 29.1367 35.3839 29.3449 36.5813C27.6963 37.2928 25.8916 37.6746 24 37.6746ZM31.6182 35.3319C31.4794 34.4989 30.7506 30.5076 28.9631 25.5965C33.2495 24.9197 36.9978 26.0304 37.4664 26.1866C36.8764 29.987 34.6898 33.2668 31.6182 35.3319Z" fill="white" />
</svg>
