<svg viewBox="0 0 48 48" fill="none" xmlns="http://www.w3.org/2000/svg">
    <circle cx="24" cy="24" r="24" fill="url(#paint0_linear_102_2954)" />
    <path fill-rule="evenodd" clip-rule="evenodd" d="M24 8C19.6547 8 19.1098 8.01842 17.4032 8.09628C15.7002 8.17396 14.5371 8.44446 13.5194 8.84001C12.4673 9.24884 11.575 9.79593 10.6854 10.6854C9.79593 11.575 9.24884 12.4673 8.84001 13.5194C8.44446 14.5371 8.17396 15.7002 8.09628 17.4032C8.01842 19.1098 8 19.6547 8 24C8 28.3453 8.01842 28.8902 8.09628 30.5968C8.17396 32.2998 8.44446 33.4629 8.84001 34.4806C9.24884 35.5327 9.79593 36.425 10.6854 37.3146C11.575 38.2041 12.4673 38.7512 13.5194 39.1601C14.5371 39.5555 15.7002 39.826 17.4032 39.9037C19.1098 39.9816 19.6547 40 24 40C28.3453 40 28.8902 39.9816 30.5968 39.9037C32.2998 39.826 33.4629 39.5555 34.4806 39.1601C35.5327 38.7512 36.425 38.2041 37.3146 37.3146C38.2041 36.425 38.7512 35.5327 39.1601 34.4806C39.5555 33.4629 39.826 32.2998 39.9037 30.5968C39.9816 28.8902 40 28.3453 40 24C40 19.6547 39.9816 19.1098 39.9037 17.4032C39.826 15.7002 39.5555 14.5371 39.1601 13.5194C38.7512 12.4673 38.2041 11.575 37.3146 10.6854C36.425 9.79593 35.5327 9.24884 34.4806 8.84001C33.4629 8.44446 32.2998 8.17396 30.5968 8.09628C28.8902 8.01842 28.3453 8 24 8ZM24 10.8829C28.2722 10.8829 28.7782 10.8992 30.4654 10.9762C32.0254 11.0473 32.8725 11.308 33.4363 11.5271C34.1832 11.8173 34.7162 12.164 35.276 12.724C35.836 13.2838 36.1827 13.8168 36.4729 14.5637C36.692 15.1275 36.9527 15.9746 37.0238 17.5346C37.1008 19.2218 37.1171 19.7278 37.1171 24C37.1171 28.2722 37.1008 28.7782 37.0238 30.4654C36.9527 32.0254 36.692 32.8725 36.4729 33.4363C36.1827 34.1832 35.836 34.7162 35.276 35.276C34.7162 35.836 34.1832 36.1827 33.4363 36.4729C32.8725 36.692 32.0254 36.9527 30.4654 37.0238C28.7785 37.1008 28.2725 37.1171 24 37.1171C19.7275 37.1171 19.2216 37.1008 17.5346 37.0238C15.9746 36.9527 15.1275 36.692 14.5637 36.4729C13.8168 36.1827 13.2838 35.836 12.724 35.276C12.1641 34.7162 11.8173 34.1832 11.5271 33.4363C11.308 32.8725 11.0473 32.0254 10.9762 30.4654C10.8992 28.7782 10.8829 28.2722 10.8829 24C10.8829 19.7278 10.8992 19.2218 10.9762 17.5346C11.0473 15.9746 11.308 15.1275 11.5271 14.5637C11.8173 13.8168 12.164 13.2838 12.724 12.724C13.2838 12.164 13.8168 11.8173 14.5637 11.5271C15.1275 11.308 15.9746 11.0473 17.5346 10.9762C19.2218 10.8992 19.7278 10.8829 24 10.8829V10.8829Z" fill="white" />
    <path fill-rule="evenodd" clip-rule="evenodd" d="M24 29.3334C21.0545 29.3334 18.6667 26.9456 18.6667 24.0001C18.6667 21.0545 21.0545 18.6667 24 18.6667C26.9455 18.6667 29.3333 21.0545 29.3333 24.0001C29.3333 26.9456 26.9455 29.3334 24 29.3334ZM24 15.7838C19.4623 15.7838 15.7838 19.4623 15.7838 24.0001C15.7838 28.5377 19.4623 32.2162 24 32.2162C28.5377 32.2162 32.2162 28.5377 32.2162 24.0001C32.2162 19.4623 28.5377 15.7838 24 15.7838V15.7838Z" fill="white" />
    <path fill-rule="evenodd" clip-rule="evenodd" d="M34.4609 15.4592C34.4609 16.5196 33.6012 17.3792 32.5408 17.3792C31.4805 17.3792 30.6208 16.5196 30.6208 15.4592C30.6208 14.3988 31.4805 13.5392 32.5408 13.5392C33.6012 13.5392 34.4609 14.3988 34.4609 15.4592" fill="white" />
    <defs>
        <linearGradient id="paint0_linear_102_2954" x1="24" y1="72" x2="72" y2="24" gradientUnits="userSpaceOnUse">
            <stop stop-color="#FFD522" />
            <stop offset="0.497382" stop-color="#F1000B" />
            <stop offset="1" stop-color="#B900B3" />
        </linearGradient>
    </defs>
</svg>
