<svg viewBox="0 0 48 48" fill="none" xmlns="http://www.w3.org/2000/svg">
    <circle cx="24" cy="24" r="24" fill="url(#paint0_radial_102_3023)" />
    <path fill-rule="evenodd" clip-rule="evenodd" d="M10 23.58C10 15.777 16.1134 10 24 10C31.8866 10 38 15.777 38 23.58C38 31.3831 31.8866 37.1601 24 37.1601C22.5834 37.1601 21.2244 36.973 19.9474 36.6219C19.6992 36.5536 19.4352 36.5729 19.1997 36.6768L16.4209 37.9035C15.694 38.2243 14.8735 37.7075 14.8491 36.9131L14.7729 34.4228C14.7635 34.1159 14.6255 33.8292 14.3968 33.6245C11.6727 31.1884 10 27.6615 10 23.58ZM19.7056 21.0269L15.5931 27.5515C15.1984 28.1776 15.9681 28.8832 16.5577 28.4358L20.9752 25.0832C21.274 24.8564 21.6869 24.8552 21.987 25.0803L25.258 27.5335C26.2395 28.2697 27.6403 28.0112 28.2945 26.9733L32.407 20.4487C32.8016 19.8225 32.0319 19.1169 31.4423 19.5644L27.0249 22.9169C26.726 23.1437 26.3131 23.1449 26.013 22.9198L22.7421 20.4667C21.7606 19.7305 20.3597 19.989 19.7056 21.0269Z" fill="white" />
    <defs>
        <radialGradient id="paint0_radial_102_3023" cx="0" cy="0" r="1" gradientUnits="userSpaceOnUse" gradientTransform="translate(9.23877 47.7433) rotate(-57.0915) scale(52.3006)">
            <stop stop-color="#0099FF" />
            <stop offset="0.609754" stop-color="#A033FF" />
            <stop offset="0.934823" stop-color="#FF5280" />
            <stop offset="1" stop-color="#FF7061" />
        </radialGradient>
    </defs>
</svg>
