<svg viewBox="0 0 48 48" fill="none" xmlns="http://www.w3.org/2000/svg">
    <circle cx="24" cy="24" r="24" fill="#E60023" />
    <path d="M24.528 8.90002C32.848 8.90002 39.32 14.832 39.32 22.76C39.32 31.032 34.106 37.688 26.866 37.688C24.436 37.688 22.146 36.428 21.366 34.932L19.87 40.638V40.638C19.4641 42.2016 18.536 44.0681 17.6856 45.5756L17.3008 46.2435V46.2435L16.9401 46.846V46.846C16.3618 46.6475 15.7935 46.4279 15.2372 46.186L15.1775 45.5918C15.007 43.7336 14.9145 41.2788 15.338 39.464L18.15 27.534V27.534L18.0527 27.3133V27.3133L17.9509 27.0479V27.0479L17.8724 26.8183V26.8183L17.79 26.549V26.549L17.7076 26.2421C17.6941 26.1879 17.6807 26.1323 17.6676 26.0752L17.5925 25.7157C17.4982 25.2143 17.43 24.6263 17.43 23.974C17.43 20.634 19.366 18.144 21.774 18.144C23.822 18.144 24.81 19.68 24.81 21.524C24.81 22.4069 24.5694 23.4771 24.2412 24.6362L24.0111 25.4211V25.4211L23.3884 27.4561C23.1818 28.1438 22.985 28.8355 22.824 29.514C22.258 31.904 24.02 33.854 26.376 33.854C30.64 33.854 33.92 29.354 33.92 22.862C33.92 17.118 29.79 13.098 23.894 13.098C17.064 13.098 13.054 18.222 13.054 23.514C13.054 25.578 13.85 27.79 14.842 28.994C15.038 29.228 15.066 29.438 15.008 29.68L14.342 32.4V32.4C14.236 32.84 13.994 32.932 13.542 32.72C10.542 31.326 8.668 26.94 8.668 23.42C8.668 15.852 14.168 8.90002 24.528 8.90002Z" fill="white" />
</svg>
