<svg viewBox="0 0 48 48" fill="none" xmlns="http://www.w3.org/2000/svg">
    <circle cx="24" cy="24" r="24" fill="#FF4500" />
    <path fill-rule="evenodd" clip-rule="evenodd" d="M37.8108 21.1346C39.092 21.6454 39.9491 22.8495 39.9996 24.2096C40.0205 25.5398 39.2636 26.7635 38.0537 27.3556C38.0808 27.702 38.0808 28.05 38.0537 28.3964C38.0537 33.6949 31.7838 38 24.0484 38C16.313 38 10.0431 33.6949 10.0431 28.3964C10.016 28.05 10.016 27.702 10.0431 27.3556C8.78045 26.7844 7.97933 25.5331 8.00041 24.165C8.02148 22.797 8.86078 21.5702 10.1404 21.037C11.4201 20.5038 12.8988 20.7647 13.9108 21.7022C16.6789 19.8537 19.9354 18.8424 23.2797 18.7928L25.0574 10.5847C25.0977 10.3928 25.2144 10.2248 25.3814 10.1181C25.5484 10.0114 25.7518 9.97504 25.9462 10.017L31.8318 11.1761C32.4256 10.1716 33.6724 9.74071 34.7735 10.1594C35.8745 10.5781 36.5036 11.7224 36.2575 12.859C36.0115 13.9957 34.9633 14.788 33.7846 14.7283C32.6058 14.6686 31.6458 13.7745 31.5195 12.619L26.3786 11.5546L24.8171 18.9347C28.1208 19.0045 31.3331 20.015 34.0659 21.8442C35.0632 20.9017 36.5296 20.6239 37.8108 21.1346ZM18.379 24.2096C17.0523 24.2096 15.9767 25.2686 15.9767 26.575C15.9767 27.2024 16.2298 27.804 16.6803 28.2476C17.1309 28.6912 17.7419 28.9404 18.379 28.9404C19.7058 28.9404 20.7813 27.8814 20.7813 26.575C20.7813 25.2686 19.7058 24.2096 18.379 24.2096ZM29.934 33.0799C28.2296 34.3446 26.1327 34.9883 24.0004 34.9013C21.8681 34.9883 19.7711 34.3446 18.0667 33.0799C17.8551 32.826 17.8736 32.4554 18.1095 32.2231C18.3453 31.9909 18.7217 31.9727 18.9796 32.1811C20.4239 33.2242 22.1869 33.75 23.9763 33.6713C25.768 33.7672 27.5392 33.2582 28.9971 32.2284C29.1688 32.0636 29.4167 32.0015 29.6474 32.0654C29.8782 32.1294 30.0568 32.3098 30.1159 32.5385C30.175 32.7673 30.1057 33.0097 29.934 33.1745V33.0799ZM27.0993 26.6696C27.0993 27.976 28.1748 29.035 29.5016 29.035L29.4776 29.1297C30.1359 29.1367 30.7682 28.8773 31.2269 28.4123C31.6855 27.9473 31.9303 27.3173 31.9039 26.6696C31.9039 25.3632 30.8283 24.3042 29.5016 24.3042C28.1748 24.3042 27.0993 25.3632 27.0993 26.6696Z" fill="white" />
</svg>
