<svg viewBox="0 0 48 48" fill="none" xmlns="http://www.w3.org/2000/svg">
    <circle cx="24" cy="24" r="24" fill="#FFFC00" />
    <path d="M39.0163 31.754C38.885 31.3128 38.2569 31.0017 38.2569 31.0017C38.1975 30.97 38.1443 30.9414 38.1006 30.9192C37.0537 30.405 36.1255 29.7861 35.3442 29.0847C34.716 28.5197 34.1785 27.8976 33.7472 27.2374C33.2191 26.4312 32.9722 25.7583 32.8659 25.3933C32.8065 25.1553 32.8159 25.0601 32.8659 24.9363C32.9065 24.8315 33.0284 24.7331 33.0847 24.6855C33.4378 24.4316 34.0066 24.0571 34.3566 23.8286C34.6598 23.6286 34.9192 23.4572 35.0723 23.3493C35.5629 23.0002 35.9005 22.6447 36.0974 22.2606C36.3536 21.7655 36.3849 21.2196 36.1849 20.6832C35.9161 19.9595 35.2504 19.5278 34.4035 19.5278C34.216 19.5278 34.0222 19.55 33.8285 19.5913C33.3441 19.6992 32.8847 19.8738 32.5003 20.0261C32.4721 20.0388 32.4409 20.0166 32.444 19.9849C32.4846 19.0168 32.5315 17.7155 32.4253 16.4808C32.3315 15.3636 32.1034 14.4209 31.7346 13.5988C31.3627 12.7736 30.8783 12.1642 30.5002 11.723C30.1408 11.3041 29.5063 10.6851 28.55 10.1297C27.2062 9.3489 25.6749 8.95215 23.9998 8.95215C22.3278 8.95215 20.7996 9.3489 19.4526 10.1297C18.4401 10.7169 17.7932 11.3802 17.4994 11.723C17.1212 12.1642 16.6368 12.7736 16.2649 13.5988C15.893 14.4209 15.668 15.3604 15.5743 16.4808C15.468 17.7218 15.5118 18.9184 15.5555 19.9849C15.5555 20.0166 15.5274 20.0388 15.4962 20.0261C15.1118 19.8738 14.6524 19.6992 14.1679 19.5913C13.9773 19.55 13.7836 19.5278 13.5929 19.5278C12.7491 19.5278 12.0835 19.9595 11.8116 20.6832C11.6115 21.2196 11.6428 21.7655 11.8991 22.2606C12.0991 22.6447 12.4335 23.0002 12.9241 23.3493C13.0741 23.4572 13.3366 23.6286 13.6398 23.8286C13.9804 24.0539 14.5336 24.4189 14.8899 24.6697C14.9336 24.7014 15.0836 24.8157 15.1305 24.9363C15.1805 25.0632 15.1899 25.1585 15.1243 25.4124C15.0149 25.7806 14.768 26.4471 14.2492 27.2374C13.8179 27.9008 13.2804 28.5197 12.6522 29.0847C11.8709 29.7861 10.9428 30.405 9.89582 30.9192C9.84582 30.9446 9.78644 30.9732 9.72394 31.0113C9.72394 31.0113 9.0989 31.335 8.98014 31.754C8.80513 32.3729 9.27079 32.9537 9.74269 33.2648C10.5177 33.7726 11.4615 34.0456 12.0084 34.1948C12.1616 34.236 12.2991 34.2741 12.4241 34.3122C12.5022 34.3376 12.6991 34.4138 12.7835 34.5249C12.8897 34.6645 12.9022 34.8359 12.9398 35.0295C12.9991 35.3564 13.1335 35.7595 13.5304 36.0388C13.9679 36.3435 14.5211 36.3658 15.2243 36.3943C15.9587 36.4229 16.8712 36.4578 17.9182 36.8101C18.4026 36.972 18.8432 37.2481 19.3495 37.5655C20.4121 38.2289 21.734 39.0541 23.9904 39.0541C26.2499 39.0541 27.5812 38.2257 28.65 37.5592C29.1563 37.2449 29.5907 36.972 30.0658 36.8133C31.1127 36.461 32.0252 36.4261 32.7597 36.3975C33.4628 36.3689 34.016 36.3499 34.4535 36.042C34.8785 35.7437 35.0004 35.2993 35.0567 34.966C35.0879 34.801 35.1067 34.6518 35.2004 34.5312C35.2817 34.4265 35.4629 34.3535 35.5473 34.3249C35.6755 34.2836 35.8192 34.2455 35.9786 34.2011C36.5255 34.0519 37.213 33.8774 38.0475 33.3981C39.0538 32.8173 39.1225 32.1063 39.0163 31.754Z" fill="white" />
    <path fill-rule="evenodd" clip-rule="evenodd" d="M38.7569 30.1956C39.2382 30.4686 39.6632 30.7955 39.8851 31.4112C40.1351 32.1 39.982 32.8776 39.3788 33.5441L39.3694 33.5537C39.1475 33.8044 38.8694 34.0234 38.51 34.2234C37.7006 34.6772 37.0162 34.8962 36.4818 35.0454C36.3786 35.0772 36.188 35.1438 36.1005 35.22C35.9787 35.3273 35.9277 35.4638 35.8641 35.6342C35.8167 35.7612 35.7622 35.9071 35.6661 36.0738C35.4598 36.4356 35.1973 36.6737 34.991 36.8197C34.3304 37.2817 33.5922 37.3115 32.8072 37.3431L32.8003 37.3434L32.7946 37.3436C32.0866 37.3721 31.2821 37.4045 30.3658 37.7116C30.0095 37.8312 29.6299 38.0663 29.1931 38.3368L29.1469 38.3654L29.1367 38.3718C28.0281 39.06 26.514 40 23.9966 40C21.4746 40 19.9652 39.0605 18.8651 38.3718C18.4088 38.0861 18.0119 37.8385 17.6306 37.7116C16.7143 37.4045 15.9099 37.3721 15.2018 37.3436L15.1961 37.3434L15.1885 37.3431C14.4038 37.3115 13.6627 37.2816 13.0054 36.8197C12.8241 36.6927 12.6054 36.4959 12.4147 36.2071C12.261 35.9814 12.1903 35.7904 12.1308 35.6296C12.0681 35.4602 12.0178 35.3243 11.8959 35.2168C11.8022 35.1311 11.5865 35.0613 11.4928 35.0327C10.9615 34.8836 10.2865 34.6646 9.49267 34.2202C9.15515 34.0298 8.88639 33.8234 8.67388 33.5917C8.02696 32.9157 7.8582 32.1127 8.11447 31.4081C8.40233 30.6122 9.02663 30.2942 9.68297 29.96C9.7962 29.9023 9.91038 29.8442 10.024 29.783C11.4772 28.9831 12.6179 27.9802 13.4148 26.7963C13.6835 26.3963 13.8742 26.0345 14.0054 25.7393C14.0836 25.5235 14.0836 25.4061 14.0304 25.2982C13.9836 25.2029 13.8492 25.1014 13.8117 25.076C13.5617 24.9078 13.3085 24.7395 13.1335 24.6253C12.8116 24.4158 12.5585 24.2476 12.3928 24.1301C11.7772 23.6921 11.3428 23.2256 11.074 22.705C10.6927 21.9718 10.6459 21.1339 10.9396 20.3468C11.3459 19.2549 12.3647 18.5757 13.596 18.5757C13.8492 18.5757 14.1117 18.6042 14.368 18.6614C14.4008 18.6693 14.4344 18.6772 14.468 18.6852C14.5016 18.6931 14.5352 18.7011 14.568 18.709C14.5586 17.9663 14.5742 17.1728 14.6398 16.3983C14.8711 13.6687 15.8118 12.2373 16.7931 11.0978C17.1994 10.6249 17.9119 9.9266 18.987 9.3045C20.4777 8.43801 22.1653 8 23.9998 8C25.8405 8 27.5281 8.43801 29.0188 9.30768C30.0876 9.92978 30.8002 10.6249 31.2096 11.101C32.1909 12.2404 33.1316 13.6719 33.3628 16.4015C33.4284 17.176 33.4472 17.9694 33.4347 18.7122C33.5003 18.6963 33.566 18.6804 33.6347 18.6646C33.891 18.6074 34.1504 18.5789 34.4066 18.5789C35.638 18.5789 36.6568 19.2581 37.063 20.3499C37.3568 21.1371 37.3099 21.975 36.9287 22.7082C36.6599 23.2287 36.2286 23.6953 35.6098 24.1333C35.4672 24.2336 35.2523 24.3755 34.9841 24.5525C34.9468 24.5771 34.9085 24.6025 34.8692 24.6284C34.6879 24.7459 34.4223 24.9205 34.1629 25.095C34.1066 25.1363 34.0066 25.2188 33.9691 25.2982C33.9191 25.4029 33.916 25.5172 33.9847 25.7203C34.1191 26.0218 34.3097 26.39 34.5848 26.7994C35.3973 28.0087 36.5724 29.0307 38.0756 29.8401C38.1343 29.8706 38.193 29.9005 38.2515 29.9303C38.3394 29.9752 38.4268 30.0197 38.5131 30.0655C38.5819 30.0972 38.6663 30.1416 38.7569 30.1956ZM35.7636 33.3595C36.2804 33.2201 36.8932 33.0547 37.6443 32.6332C38.5162 32.1444 38.0193 31.8429 37.7381 31.7001C32.7815 29.2656 31.9909 25.5013 31.9565 25.2188C31.9552 25.209 31.9539 25.1992 31.9527 25.1895C31.9104 24.8637 31.8765 24.6026 32.2315 24.2698C32.4721 24.0427 33.2787 23.512 33.9056 23.0995C34.1988 22.9067 34.4526 22.7396 34.591 22.6415C35.3098 22.1305 35.6286 21.6195 35.3942 20.9911C35.2317 20.5594 34.8317 20.3944 34.4098 20.3944C34.2785 20.3944 34.1441 20.4102 34.016 20.4388C33.5509 20.5415 33.0934 20.7232 32.7051 20.8775C32.4333 20.9855 32.1955 21.0799 32.0127 21.1244C31.9534 21.1403 31.8971 21.1466 31.8502 21.1466C31.6158 21.1466 31.5283 21.0387 31.5471 20.7499C31.549 20.7198 31.551 20.6888 31.5531 20.6569C31.6112 19.7537 31.7174 18.102 31.5846 16.5539C31.3971 14.3479 30.697 13.2561 29.8657 12.2912C29.4657 11.8278 27.6 9.81551 24.006 9.81551C20.4214 9.81551 18.5463 11.8278 18.1463 12.2912C17.315 13.2593 16.615 14.3511 16.4275 16.5539C16.3023 18.0122 16.3945 19.5625 16.4499 20.4924C16.4553 20.5845 16.4604 20.6706 16.465 20.7499C16.4806 21.026 16.3993 21.1466 16.1618 21.1466C16.1149 21.1466 16.0618 21.1403 15.9993 21.1244C15.8166 21.0799 15.5787 20.9855 15.3069 20.8775C14.9187 20.7232 14.4612 20.5415 13.9961 20.4388C13.8679 20.4102 13.7335 20.3944 13.6023 20.3944C13.1804 20.3944 12.7804 20.5562 12.6179 20.9911C12.3835 21.6195 12.6991 22.1305 13.421 22.6415C13.5594 22.7396 13.8133 22.9066 14.1064 23.0995C14.7333 23.512 15.5399 24.0427 15.7805 24.2698C16.1359 24.606 16.1016 24.8673 16.0593 25.1905C16.058 25.1999 16.0568 25.2093 16.0556 25.2188C16.0181 25.5013 15.2305 29.2656 10.274 31.7001C9.98333 31.8429 9.48955 32.1444 10.3615 32.6332C11.1092 33.0511 11.7199 33.216 12.2352 33.3553C12.6633 33.4709 13.0256 33.5688 13.346 33.779C13.6707 33.992 13.7163 34.3378 13.7586 34.6587C13.7945 34.9308 13.828 35.1849 14.0273 35.3247C14.2594 35.4888 14.69 35.5055 15.2706 35.5282C16.0271 35.5576 17.0382 35.597 18.1963 35.9849C18.7745 36.1789 19.2769 36.4922 19.8059 36.8223C20.8438 37.4697 21.9846 38.1813 24.0029 38.1813C26.0233 38.1813 27.1773 37.4625 28.2193 36.8134C28.7455 36.4856 29.2432 36.1756 29.8095 35.9849C30.9677 35.597 31.9778 35.5576 32.734 35.5282C33.3143 35.5055 33.7451 35.4887 33.9785 35.3247C34.1778 35.1849 34.2113 34.9308 34.2472 34.6587C34.2895 34.3378 34.3351 33.992 34.6598 33.779C34.9785 33.5713 35.3386 33.4742 35.7636 33.3595Z" fill="black" />
</svg>
