<svg viewBox="0 0 48 48" fill="none" xmlns="http://www.w3.org/2000/svg">
    <circle cx="24" cy="24" r="24" fill="url(#paint0_linear_102_2978)" />
    <path d="M10.7874 24.0404C17.7667 21.0768 22.4206 19.123 24.7493 18.179C31.3979 15.4838 32.7795 15.0156 33.68 15.0002C33.878 14.9968 34.3208 15.0446 34.6077 15.2714C34.8499 15.463 34.9165 15.7217 34.9484 15.9033C34.9803 16.0849 35.02 16.4986 34.9884 16.8219C34.6281 20.5114 33.0692 29.465 32.276 33.5974C31.9404 35.3459 31.2796 35.9322 30.6399 35.9896C29.2496 36.1143 28.1938 35.0941 26.8473 34.2338C24.7401 32.8876 23.5498 32.0496 21.5044 30.736C19.1407 29.2179 20.673 28.3835 22.0201 27.0199C22.3726 26.663 28.4983 21.2326 28.6169 20.74C28.6317 20.6784 28.6455 20.4488 28.5055 20.3275C28.3655 20.2062 28.1589 20.2477 28.0098 20.2807C27.7985 20.3274 24.4323 22.4958 17.9113 26.786C16.9558 27.4254 16.0904 27.737 15.315 27.7206C14.4602 27.7026 12.8159 27.2496 11.5935 26.8623C10.0942 26.3873 8.90254 26.1362 9.0063 25.3295C9.06035 24.9093 9.65403 24.4796 10.7874 24.0404Z" fill="white" />
    <defs>
        <linearGradient id="paint0_linear_102_2978" x1="0.177999" y1="0" x2="0.177999" y2="47.644" gradientUnits="userSpaceOnUse">
            <stop stop-color="#2AABEE" />
            <stop offset="1" stop-color="#229ED9" />
        </linearGradient>
    </defs>
</svg>
